<svg preserveAspectRatio="none" overflow="visible" style="display: block;" width="24" height="24" viewBox="0 0 24 24" fill="none" xmlns="http://www.w3.org/2000/svg">
<g id="radix-icons:face">
<path id="Vector" d="M12 1.4032C14.8104 1.4032 17.5058 2.51965 19.4931 4.50693C21.4804 6.49422 22.5968 9.18955 22.5968 12C22.5968 14.8104 21.4804 17.5058 19.4931 19.4931C17.5058 21.4804 14.8104 22.5968 12 22.5968C9.18955 22.5968 6.49422 21.4804 4.50693 19.4931C2.51965 17.5058 1.4032 14.8104 1.4032 12C1.4032 9.18955 2.51965 6.49422 4.50693 4.50693C6.49422 2.51965 9.18955 1.4032 12 1.4032ZM12 2.9232C10.7857 2.88714 9.57644 3.09518 8.44397 3.53499C7.3115 3.97479 6.27883 4.63743 5.40713 5.48363C4.53542 6.32983 3.84243 7.34238 3.3692 8.4613C2.89597 9.58021 2.65214 10.7827 2.65214 11.9976C2.65214 13.2125 2.89597 14.415 3.3692 15.5339C3.84243 16.6528 4.53542 17.6654 5.40713 18.5116C6.27883 19.3578 7.3115 20.0204 8.44397 20.4602C9.57644 20.9 10.7857 21.1081 12 21.072C14.371 21.0171 16.6263 20.0365 18.2836 18.3401C19.9408 16.6436 20.8685 14.366 20.8681 11.9944C20.8677 9.62284 19.9392 7.34557 18.2813 5.64972C16.6235 3.95387 14.3678 2.97411 11.9968 2.92M15.936 14.7392C16.0593 14.57 16.2439 14.4558 16.4504 14.4212C16.6569 14.3866 16.8687 14.4343 17.0404 14.554C17.2121 14.6738 17.33 14.8561 17.3688 15.0618C17.4076 15.2676 17.3642 15.4803 17.248 15.6544C16.6592 16.501 15.8745 17.1928 14.9607 17.6708C14.047 18.1489 13.0312 18.399 12 18.4C11.0322 18.4001 10.077 18.1807 9.20625 17.7584C8.33549 17.336 7.57186 16.7217 6.9728 15.9616L6.7472 15.6576L6.6688 15.5152C6.5966 15.3461 6.58484 15.1573 6.63549 14.9806C6.68614 14.8039 6.79611 14.65 6.94691 14.5448C7.09771 14.4397 7.28012 14.3897 7.46346 14.4032C7.64681 14.4167 7.81989 14.493 7.9536 14.6192L8.0592 14.7424L8.2288 14.9696C8.67802 15.5401 9.2508 16.0012 9.90403 16.3182C10.5573 16.6353 11.2739 16.8 12 16.8C12.7738 16.8 13.5362 16.6128 14.2221 16.2546C14.908 15.8963 15.4971 15.3775 15.9392 14.7424M8.6 8.16C8.9713 8.16 9.3274 8.3075 9.58995 8.57005C9.8525 8.8326 10 9.1887 10 9.56C10 9.9313 9.8525 10.2874 9.58995 10.55C9.3274 10.8125 8.9713 10.96 8.6 10.96C8.2287 10.96 7.8726 10.8125 7.61005 10.55C7.3475 10.2874 7.2 9.9313 7.2 9.56C7.2 9.1887 7.3475 8.8326 7.61005 8.57005C7.8726 8.3075 8.2287 8.16 8.6 8.16ZM15.4 8.16C15.7713 8.16 16.1274 8.3075 16.39 8.57005C16.6525 8.8326 16.8 9.1887 16.8 9.56C16.8 9.9313 16.6525 10.2874 16.39 10.55C16.1274 10.8125 15.7713 10.96 15.4 10.96C15.0287 10.96 14.6726 10.8125 14.4101 10.55C14.1475 10.2874 14 9.9313 14 9.56C14 9.1887 14.1475 8.8326 14.4101 8.57005C14.6726 8.3075 15.0287 8.16 15.4 8.16Z" fill="#6B7280"/>
</g>
</svg>
