<svg preserveAspectRatio="none" overflow="visible" style="display: block;" width="16" height="16" viewBox="0 0 16 16" fill="none" xmlns="http://www.w3.org/2000/svg">
<g id="ic:round-arrow-back-ios">
<path id="Vector" d="M10.794 3.1957C10.7292 3.13367 10.6521 3.08445 10.5673 3.05087C10.4824 3.01729 10.3915 3 10.2997 3C10.2078 3 10.1169 3.01729 10.032 3.05087C9.94721 3.08445 9.87016 3.13367 9.8053 3.1957L5.16336 7.62422C5.11157 7.67353 5.07049 7.73209 5.04246 7.79656C5.01443 7.86102 5 7.93013 5 7.99993C5 8.06972 5.01443 8.13883 5.04246 8.2033C5.07049 8.26777 5.11157 8.32633 5.16336 8.37563L9.8053 12.8042C10.079 13.0653 10.5203 13.0653 10.794 12.8042C11.0677 12.543 11.0677 12.122 10.794 11.8609L6.74977 7.99726L10.7996 4.13363C11.0677 3.87784 11.0677 3.4515 10.794 3.1957Z" fill="#12AD82"/>
</g>
</svg>
