<svg preserveAspectRatio="none" overflow="visible" style="display: block;" width="20" height="18" viewBox="0 0 20 18" fill="none" xmlns="http://www.w3.org/2000/svg">
<g id="Container">
<path id="Symbol" d="M10 1.6875C11.3359 1.6875 12.5547 2.01562 13.6562 2.67188V2.67188C14.7578 3.30469 15.6484 4.19531 16.3281 5.34375C16.9844 6.49219 17.3125 7.71094 17.3125 9C17.3125 10.2891 16.9844 11.5078 16.3281 12.6562C15.6484 13.8047 14.7578 14.6953 13.6562 15.3281C12.5547 15.9844 11.3359 16.3125 10 16.3125C8.66406 16.3125 7.44531 15.9844 6.34375 15.3281C5.24219 14.6953 4.35156 13.8047 3.67188 12.6562C3.01562 11.5078 2.6875 10.2891 2.6875 9C2.6875 7.71094 3.01562 6.49219 3.67188 5.34375C4.35156 4.19531 5.24219 3.30469 6.34375 2.67188C7.44531 2.01562 8.66406 1.6875 10 1.6875V1.6875V1.6875M10 18C11.6406 17.9766 13.1406 17.5781 14.5 16.8047V16.8047C15.8594 16.0078 16.9609 14.9062 17.8047 13.5C18.6016 12.0703 19 10.5703 19 9C19 7.42969 18.6016 5.92969 17.8047 4.5C16.9609 3.09375 15.8594 1.99219 14.5 1.19531C13.1406 0.421875 11.6406 0.0234375 10 0C8.35938 0.0234375 6.85938 0.421875 5.5 1.19531C4.14062 1.99219 3.03906 3.09375 2.19531 4.5C1.39844 5.92969 1 7.42969 1 9C1 10.5703 1.39844 12.0703 2.19531 13.5C3.03906 14.9062 4.14062 16.0078 5.5 16.8047C6.85938 17.5781 8.35938 17.9766 10 18V18V18M7.99609 11.0039C7.45703 10.418 7.1875 9.75 7.1875 9V9C7.1875 8.25 7.45703 7.59375 7.99609 7.03125C8.58203 6.46875 9.25 6.1875 10 6.1875C10.75 6.1875 11.418 6.46875 12.0039 7.03125C12.4023 7.35938 12.7891 7.35938 13.1641 7.03125C13.4922 6.60938 13.4922 6.21094 13.1641 5.83594C12.25 4.94531 11.1953 4.5 10 4.5C8.80469 4.5 7.73828 4.94531 6.80078 5.83594C5.93359 6.75 5.5 7.80469 5.5 9C5.5 10.1953 5.93359 11.2617 6.80078 12.1992C7.73828 13.0664 8.80469 13.5 10 13.5C11.1953 13.5 12.25 13.0664 13.1641 12.1992C13.4922 11.8008 13.4922 11.4023 13.1641 11.0039C12.7656 10.6758 12.3789 10.6758 12.0039 11.0039C11.418 11.543 10.75 11.8125 10 11.8125C9.25 11.8125 8.58203 11.543 7.99609 11.0039V11.0039V11.0039" fill="#64748B"/>
</g>
</svg>
